#tb 0: 1001/30000
0,          0,          0,        1,       96, 52def242c36123e5a8f5f53d6a971399
0,          1,          1,        1,       96, 79c93360fbd47179400414bbfee0901c
0,          2,          2,        1,       96, c3b1947c79537baa7838905276276a91
0,          3,          3,        1,       96, 20f35e501bdee0bc63e87b9240265c25
0,          4,          4,        1,       96, 5e8f1c464bafd54833c51860906b5368
0,          5,          5,        1,       96, f57b592600dfc99e634a083278af769a
0,          6,          6,        1,       96, 7b02191f85590cbad3f148c7b92d6436
0,          7,          7,        1,       96, b0a1c9870447a1744f64cd4087ef55ee
0,          8,          8,        1,       96, c82712b1ba7a95efb67cbdde0ad708b6
0,          9,          9,        1,       96, 89f4539f8d7a7b45a91fd2f46335988e
